<svg width="64" height="64" viewBox="0 0 64 64" fill="none" xmlns="http://www.w3.org/2000/svg">
<path d="M19 23L32.0381 32L45 23.578L32.0381 15L19 23Z" fill="#59DAF9"/>
<path d="M54 26.5V18.6432C54 18.2965 53.8204 17.9746 53.5254 17.7924L32.5254 4.82446C32.2034 4.62558 31.7966 4.62558 31.4746 4.82446L10.4746 17.7924C10.1796 17.9746 10 18.2965 10 18.6432V44.6549C10 45.0114 10.1897 45.3409 10.498 45.5198L31.498 57.7086C31.8084 57.8888 32.1916 57.8888 32.502 57.7086L53.502 45.5198C53.8103 45.3409 54 45.0114 54 44.6549V37.5" stroke="#62DBF6" stroke-width="4" stroke-linejoin="round"/>
<circle cx="54" cy="38" r="3" fill="#62DBF6"/>
<path d="M32 31.9871L45 23.5V39.1608L32 47V31.9871Z" fill="#52D1F2"/>
<path d="M19.076 39.0762L32 47V32L19 23L19.076 39.0762Z" fill="#286C7D"/>
</svg>
